<svg xmlns="http://www.w3.org/2000/svg" viewBox="0 0 64 64" width="64" height="64" xmlns:c2pa="http://c2pa.org/manifest"><metadata><c2pa:manifest>AAAWgmp1bWIAAAAeanVtZGMycGEAEQAQgAAAqgA4m3EDYzJwYQAAABZcanVtYgAAAEdqdW1kYzJtYQARABCAAACqADibcQN1cm46YzJwYTphZjE2NGU1NS03Zjc4LTQ5MGUtYTU5MS1mYzk4ZWYyOWIzYmMAAAADl2p1bWIAAAApanVtZGMyYXMAEQAQgAAAqgA4m3EDYzJwYS5hc3NlcnRpb25zAAAAALxqdW1iAAAARGp1bWRjYm9yABEAEIAAAKoAOJtxE2MycGEuaW5ncmVkaWVudC52MwAAAAAYYzJzaIxCQi/APreSuW+zq27L6wAAAABwY2JvcqNpZGM6Zm9ybWF0bWltYWdlL3N2Zyt4bWxqaW5zdGFuY2VJRHgseG1wOmlpZDpjY2M0MmI0ZC0xMjBiLTRkNDMtYjIyMC1jNzc2NmNkYmZkYWVscmVsYXRpb25zaGlwaHBhcmVudE9mAAAB4mp1bWIAAABBanVtZGNib3IAEQAQgAAAqgA4m3ETYzJwYS5hY3Rpb25zLnYyAAAAABhjMnNo+tvWbjfMlIxmCN8hJ9rv0wAAAZljYm9yomdhY3Rpb25zgqJmYWN0aW9ua2MycGEub3BlbmVkanBhcmFtZXRlcnOha2luZ3JlZGllbnRzgaJjdXJseC1zZWxmI2p1bWJmPWMycGEuYXNzZXJ0aW9ucy9jMnBhLmluZ3JlZGllbnQudjNkaGFzaFggq+4SiBWE99fh3BTy8Ackctz+prhErW+B+E3TFi7sMVKkZmFjdGlvbngdY29tLmFudGhyb3BpYy5jbGF1ZGUucHJvdmlkZWRqcGFyYW1ldGVyc6F4H2NvbS5hbnRocm9waWMub3JpZ2luLWNvbmZpZGVuY2VndW5rbm93bmtkZXNjcmlwdGlvbnhmQ2xhdWRlIHByb3ZpZGVkIHRoaXMgZmlsZSBhdCB0aGUgcmVxdWVzdCBvZiBhIHVzZXIgYW5kIG1heSBoYXZlIGNyZWF0ZWQgb3IgbW9kaWZpZWQgdGhlIGZpbGUgY29udGVudHMubXNvZnR3YXJlQWdlbnShZG5hbWVmQ2xhdWRlcmFsbEFjdGlvbnNJbmNsdWRlZPUAAADIanVtYgAAAEBqdW1kY2JvcgARABCAAACqADibcRNjMnBhLmhhc2guZGF0YQAAAAAYYzJzaLiqobMh7ZGvVW1g2N4TiTYAAACAY2JvcqVjYWxnZnNoYTI1NmNwYWRNAAAAAAAAAAAAAAAAAGRoYXNoWCDTE8uUG/UXQ0rBnPH1mBReiDI8G8mMBADKjXogchvQW2RuYW1lbmp1bWJmIG1hbmlmZXN0amV4Y2x1c2lvbnOBomVzdGFydBiSZmxlbmd0aBkeBAAAAj5qdW1iAAAAJ2p1bWRjMmNsABEAEIAAAKoAOJtxA2MycGEuY2xhaW0udjIAAAACD2Nib3KlY2FsZ2ZzaGEyNTZpc2lnbmF0dXJleE1zZWxmI2p1bWJmPS9jMnBhL3VybjpjMnBhOmFmMTY0ZTU1LTdmNzgtNDkwZS1hNTkxLWZjOThlZjI5YjNiYy9jMnBhLnNpZ25hdHVyZWppbnN0YW5jZUlEeCx4bXA6aWlkOmM2MGJkOWRiLWMwMTgtNGUzZC05YWIzLWZjNjQzMDgzY2Y1N3JjcmVhdGVkX2Fzc2VydGlvbnODomN1cmx4LXNlbGYjanVtYmY9YzJwYS5hc3NlcnRpb25zL2MycGEuaW5ncmVkaWVudC52M2RoYXNoWCCr7hKIFYT31+HcFPLwByRy3P6muEStb4H4TdMWLuwxUqJjdXJseCpzZWxmI2p1bWJmPWMycGEuYXNzZXJ0aW9ucy9jMnBhLmFjdGlvbnMudjJkaGFzaFggenH7l51oKzltxADn/011kp5SDAiIpmqcO12reqiwa9qiY3VybHgpc2VsZiNqdW1iZj1jMnBhLmFzc2VydGlvbnMvYzJwYS5oYXNoLmRhdGFkaGFzaFggs/OFfyYVZj1H96lLrc/wvIbyeep5HIIAKKfmSkxNvft0Y2xhaW1fZ2VuZXJhdG9yX2luZm+jZG5hbWVvQW50aHJvcGljIEZpbGVzZ3ZlcnNpb25lMS4wLjBrc3BlY1ZlcnNpb25lMi40LjAAABA4anVtYgAAAChqdW1kYzJjcwARABCAAACqADibcQNjMnBhLnNpZ25hdHVyZQAAABAIY2JvctKEWQISogEmGCFZAgowggIGMIIBjaADAgECAhRA5aAK7sI50L64g/oGQgU9Z1UTADAKBggqhkjOPQQDAzBJMRcwFQYDVQQKEw5BbnRocm9waWMsIFBCQzEuMCwGA1UEAxMlQW50aHJvcGljIENvbnRlbnQgQ3JlZGVudGlhbHMgUm9vdCBDQTAeFw0yNjA4MDcxODQzNTZaFw0yODA4MDYxOTQzNTZaMEQxFzAVBgNVBAoTDkFudGhyb3BpYywgUEJDMSkwJwYDVQQDEyBBbnRocm9waWMgQ2xhdWRlIENvbnRlbnQgU2lnbmluZzBZMBMGByqGSM49AgEGCCqGSM49AwEHA0IABJh6CmvLUBgFFNU0vUKlOVtE6djd17L5SuwX0LemFisBM3dkd/3cyjxFA3Qo5S46fX0/ihY0VZ7mfb9KF703t5OjWDBWMA4GA1UdDwEB/wQEAwIHgDAVBgNVHSUEDjAMBgorBgEEAYPoXgIBMAwGA1UdEwEB/wQCMAAwHwYDVR0jBBgwFoAUzlHiBIFOZFsj+OPEz5o+nMHXXMIwCgYIKoZIzj0EAwMDZwAwZAIwMXMdFJ4BetLLVY7ORuE9noqbbAZOZn/aArXyTwFAZfKrPzxF2vPoJNf1+UCdg1XGAjBwX1zd9WGqYkqmL5SFqw1QySjr1zJfpJM9+1rdDwSPLMOPOjKuiXjoU/pUUeG9RwmhY3BhZFkNngAAAAAAAAAAAAAAAAAAAAAAAAAAAAAAAAAAAAAAAAAAAAAAAAAAAAAAAAAAAAAAAAAAAAAAAAAAAAAAAAAAAAAAAAAAAAAAAAAAAAAAAAAAAAAAAAAAAAAAAAAAAAAAAAAAAAAAAAAAAAAAAAAAAAAAAAAAAAAAAAAAAAAAAAAAAAAAAAAAAAAAAAAAAAAAAAAAAAAAAAAAAAAAAAAAAAAAAAAAAAAAAAAAAAAAAAAAAAAAAAAAAAAAAAAAAAAAAAAAAAAAAAAAAAAAAAAAAAAAAAAAAAAAAAAAAAAAAAAAAAAAAAAAAAAAAAAAAAAAAAAAAAAAAAAAAAAAAAAAAAAAAAAAAAAAAAAAAAAAAAAAAAAAAAAAAAAAAAAAAAAAAAAAAAAAAAAAAAAAAAAAAAAAAAAAAAAAAAAAAAAAAAAAAAAAAAAAAAAAAAAAAAAAAAAAAAAAAAAAAAAAAAAAAAAAAAAAAAAAAAAAAAAAAAAAAAAAAAAAAAAAAAAAAAAAAAAAAAAAAAAAAAAAAAAAAAAAAAAAAAAAAAAAAAAAAAAAAAAAAAAAAAAAAAAAAAAAAAAAAAAAAAAAAAAAAAAAAAAAAAAAAAAAAAAAAAAAAAAAAAAAAAAAAAAAAAAAAAAAAAAAAAAAAAAAAAAAAAAAAAAAAAAAAAAAAAAAAAAAAAAAAAAAAAAAAAAAAAAAAAAAAAAAAAAAAAAAAAAAAAAAAAAAAAAAAAAAAAAAAAAAAAAAAAAAAAAAAAAAAAAAAAAAAAAAAAAAAAAAAAAAAAAAAAAAAAAAAAAAAAAAAAAAAAAAAAAAAAAAAAAAAAAAAAAAAAAAAAAAAAAAAAAAAAAAAAAAAAAAAAAAAAAAAAAAAAAAAAAAAAAAAAAAAAAAAAAAAAAAAAAAAAAAAAAAAAAAAAAAAAAAAAAAAAAAAAAAAAAAAAAAAAAAAAAAAAAAAAAAAAAAAAAAAAAAAAAAAAAAAAAAAAAAAAAAAAAAAAAAAAAAAAAAAAAAAAAAAAAAAAAAAAAAAAAAAAAAAAAAAAAAAAAAAAAAAAAAAAAAAAAAAAAAAAAAAAAAAAAAAAAAAAAAAAAAAAAAAAAAAAAAAAAAAAAAAAAAAAAAAAAAAAAAAAAAAAAAAAAAAAAAAAAAAAAAAAAAAAAAAAAAAAAAAAAAAAAAAAAAAAAAAAAAAAAAAAAAAAAAAAAAAAAAAAAAAAAAAAAAAAAAAAAAAAAAAAAAAAAAAAAAAAAAAAAAAAAAAAAAAAAAAAAAAAAAAAAAAAAAAAAAAAAAAAAAAAAAAAAAAAAAAAAAAAAAAAAAAAAAAAAAAAAAAAAAAAAAAAAAAAAAAAAAAAAAAAAAAAAAAAAAAAAAAAAAAAAAAAAAAAAAAAAAAAAAAAAAAAAAAAAAAAAAAAAAAAAAAAAAAAAAAAAAAAAAAAAAAAAAAAAAAAAAAAAAAAAAAAAAAAAAAAAAAAAAAAAAAAAAAAAAAAAAAAAAAAAAAAAAAAAAAAAAAAAAAAAAAAAAAAAAAAAAAAAAAAAAAAAAAAAAAAAAAAAAAAAAAAAAAAAAAAAAAAAAAAAAAAAAAAAAAAAAAAAAAAAAAAAAAAAAAAAAAAAAAAAAAAAAAAAAAAAAAAAAAAAAAAAAAAAAAAAAAAAAAAAAAAAAAAAAAAAAAAAAAAAAAAAAAAAAAAAAAAAAAAAAAAAAAAAAAAAAAAAAAAAAAAAAAAAAAAAAAAAAAAAAAAAAAAAAAAAAAAAAAAAAAAAAAAAAAAAAAAAAAAAAAAAAAAAAAAAAAAAAAAAAAAAAAAAAAAAAAAAAAAAAAAAAAAAAAAAAAAAAAAAAAAAAAAAAAAAAAAAAAAAAAAAAAAAAAAAAAAAAAAAAAAAAAAAAAAAAAAAAAAAAAAAAAAAAAAAAAAAAAAAAAAAAAAAAAAAAAAAAAAAAAAAAAAAAAAAAAAAAAAAAAAAAAAAAAAAAAAAAAAAAAAAAAAAAAAAAAAAAAAAAAAAAAAAAAAAAAAAAAAAAAAAAAAAAAAAAAAAAAAAAAAAAAAAAAAAAAAAAAAAAAAAAAAAAAAAAAAAAAAAAAAAAAAAAAAAAAAAAAAAAAAAAAAAAAAAAAAAAAAAAAAAAAAAAAAAAAAAAAAAAAAAAAAAAAAAAAAAAAAAAAAAAAAAAAAAAAAAAAAAAAAAAAAAAAAAAAAAAAAAAAAAAAAAAAAAAAAAAAAAAAAAAAAAAAAAAAAAAAAAAAAAAAAAAAAAAAAAAAAAAAAAAAAAAAAAAAAAAAAAAAAAAAAAAAAAAAAAAAAAAAAAAAAAAAAAAAAAAAAAAAAAAAAAAAAAAAAAAAAAAAAAAAAAAAAAAAAAAAAAAAAAAAAAAAAAAAAAAAAAAAAAAAAAAAAAAAAAAAAAAAAAAAAAAAAAAAAAAAAAAAAAAAAAAAAAAAAAAAAAAAAAAAAAAAAAAAAAAAAAAAAAAAAAAAAAAAAAAAAAAAAAAAAAAAAAAAAAAAAAAAAAAAAAAAAAAAAAAAAAAAAAAAAAAAAAAAAAAAAAAAAAAAAAAAAAAAAAAAAAAAAAAAAAAAAAAAAAAAAAAAAAAAAAAAAAAAAAAAAAAAAAAAAAAAAAAAAAAAAAAAAAAAAAAAAAAAAAAAAAAAAAAAAAAAAAAAAAAAAAAAAAAAAAAAAAAAAAAAAAAAAAAAAAAAAAAAAAAAAAAAAAAAAAAAAAAAAAAAAAAAAAAAAAAAAAAAAAAAAAAAAAAAAAAAAAAAAAAAAAAAAAAAAAAAAAAAAAAAAAAAAAAAAAAAAAAAAAAAAAAAAAAAAAAAAAAAAAAAAAAAAAAAAAAAAAAAAAAAAAAAAAAAAAAAAAAAAAAAAAAAAAAAAAAAAAAAAAAAAAAAAAAAAAAAAAAAAAAAAAAAAAAAAAAAAAAAAAAAAAAAAAAAAAAAAAAAAAAAAAAAAAAAAAAAAAAAAAAAAAAAAAAAAAAAAAAAAAAAAAAAAAAAAAAAAAAAAAAAAAAAAAAAAAAAAAAAAAAAAAAAAAAAAAAAAAAAAAAAAAAAAAAAAAAAAAAAAAAAAAAAAAAAAAAAAAAAAAAAAAAAAAAAAAAAAAAAAAAAAAAAAAAAAAAAAAAAAAAAAAAAAAAAAAAAAAAAAAAAAAAAAAAAAAAAAAAAAAAAAAAAAAAAAAAAAAAAAAAAAAAAAAAAAAAAAAAAAAAAAAAAAAAAAAAAAAAAAAAAAAAAAAAAAAAAAAAAAAAAAAAAAAAAAAAAAAAAAAAAAAAAAAAAAAAAAAAAAAAAAAAAAAAAAAAAAAAAAAAAAAAAAAAAAAAAAAAAAAAAAAAAAAAAAAAAAAAAAAAAAAAAAAAAAAAAAAAAAAAAAAAAAAAAAAAAAAAAAAAAAAAAAAAAAAAAAAAAAAAAAAAAAAAAAAAAAAAAAAAAAAAAAAAAAAAAAAAAAAAAAAAAAAAAAAAAAAAAAAAAAAAAAAAAAAAAAAAAAAAAAAAAAAAAAAAAAAAAAAAAAAAAAAAAAAAAAAAAAAAAAAAAAAAAAAAAAAAAAAAAAAAAAAAAAAAAAAAAAAAAAAAAAAAAAAAAAAAAAAAAAAAAAAAAAAAAAAAAAAAAAAAAAAAAAAAAAAAAAAAAAAAAAAAAAAAAAAAAAAAAAAAAAAAAAAAAAAAAAAAAAAAAAAAAAAAAAAAAAAAAAAAAAAAAAAAAAAAAAAAAAAAAAAAAAAAAAAAAAAAAAAAAAAAAAAAAAAAAAAAAAAAAAAAAAAAAAAAAAAAAAAAAAAAAAAAAAAAAAAAAAAAAAAAAAAAAAAAAAAAAAAAAAAAAAAAAAAAAAAAAAAAAAAAAAAAAAAAAAAAAAAAAAAAAAAAAAAAAAAAAAAAAAAAAAAAAAAAAAAAAAAAAAAAAAAAAAAAAAAAAAAAAAAAAAAAAAAAAAAAAAAAAAAAAAAAAAAAAAAAAAAAAAAAAAAAAAAAAAAAAAAAAAAAAAAAAAAAAAAAAAAAAAAAAAAAAAAAAAAAAAAAAAAAAAAAAAAAAAAAAAAAAAAAAAAAAAAAAAAAAAAAAAAAAAAAAAAAAAAAAAAAAAAAAAAAAAAAAAAAAAAAAAAAAAAAAAAAAAAAAAAAAAAAAAAAAAAAAAAAAAAAAAAAAAAAAAAAAAAAAAAAAAAAAAAAAAAAAAAAAAAAAAAAAAAAAAAAAAAAAAAAAAAAAAAAAAAAAAAAAAAAAAAAAAAAAAAAAAAAAAAAAAAAAAAAAAAAAAAAAAAAAAAAAAAAAAAAAAAAAAAAAAAAAAAAAAAAAAAAAAAAAAAAAAAAAAAAAAAAAAAAAAAAAAAAAAAAAAAAAAAAAAAAAAAAAAAAAAAAAAAAAAAAAAAAAAAAAAAAAAAAAAAAAAAAAAAAAAAAAAAAAAAAAAAAAAAAAAAAAAAAAAAAAAAAAAAAAAAAAAAAAAAAAAAAAAAAAAAAAAAAAAAAAAAAAAAAAAAAAAAAAAAAAAAAAAAAAAAAAAAAAAAAAAAAAAAAAAAAAAAAAAAAAAAAAAAAAAAAAAAAAAAAAAAAAAAAAAAAAAAAAAAAAAAAAAAAAAAAAAAAAAAAAAAAAAAAAAAAAAAAAAAAAAAAAAAAAAAAAAAAAAAAAAAAAAAAAAAAAAAAAAAAAAAAAAAAAAAAAAAAAAAAAAAAAAAAAPZYQHxIBpG3pNxw20m0BuJXQBmbHMpiWsruydQCLIkI1DycVBokYuzfgURH+Hbc6yIQGhZbqJcNQ71U6OCg/6qOVBM=</c2pa:manifest></metadata>
  <defs>
    <radialGradient id="core" cx="50%" cy="50%" r="50%">
      <stop offset="0%" stop-color="#ffffff"/>
      <stop offset="35%" stop-color="#ffe2b8"/>
      <stop offset="70%" stop-color="#f6b46e" stop-opacity="0.55"/>
      <stop offset="100%" stop-color="#f6b46e" stop-opacity="0"/>
    </radialGradient>
    <radialGradient id="armg" gradientUnits="userSpaceOnUse" cx="32" cy="32" r="30">
      <stop offset="0%" stop-color="#ffe7c4"/>
      <stop offset="35%" stop-color="#f6c38a"/>
      <stop offset="65%" stop-color="#cfe0ff"/>
      <stop offset="100%" stop-color="#6f9ef5" stop-opacity="0.55"/>
    </radialGradient>
    <radialGradient id="halo" cx="50%" cy="50%" r="50%">
      <stop offset="0%" stop-color="#4f8ff7" stop-opacity="0.35"/>
      <stop offset="100%" stop-color="#4f8ff7" stop-opacity="0"/>
    </radialGradient>
    <radialGradient id="sky" cx="50%" cy="35%" r="75%"><stop offset="0%" stop-color="#1b2f5e"/><stop offset="100%" stop-color="#070f24"/></radialGradient>
  </defs>
  <rect width="64" height="64" rx="14" fill="url(#sky)"/>
  <ellipse cx="32" cy="32" rx="31" ry="24" transform="rotate(-20 32 32)" fill="url(#halo)"/>
    <path d="M31.32 33.16 L31.30 33.08 L31.18 32.80 L31.12 32.51 L31.10 32.24 L31.13 31.99 L31.19 31.80 L31.27 31.66 L31.34 31.57 L31.39 31.54 L31.43 31.54 L31.43 31.58 L31.41 31.64 L31.35 31.71 L31.26 31.80 L31.15 31.88 L31.01 31.96 L30.86 32.03 L30.69 32.08 L30.52 32.13 L30.35 32.15 L30.18 32.16 L30.03 32.15 L29.89 32.13 L29.78 32.11 L29.68 32.08 L29.61 32.04 L29.54 32.00 L29.48 31.95 L29.42 31.87 L29.38 31.76 L29.35 31.59 L29.36 31.36 L29.42 31.08 L29.55 30.75 L29.76 30.39 L30.04 30.00 L30.41 29.59 L30.86 29.19 L31.40 28.80 L32.01 28.44 L32.69 28.11 L33.44 27.84 L34.23 27.63 L35.06 27.48 L35.91 27.41 L36.77 27.43 L37.63 27.53 L38.46 27.73 L39.25 28.01 L39.99 28.40 L40.65 28.87 L41.23 29.44 L41.72 30.09 L42.11 30.84 L42.37 31.69 L42.50 32.64 L42.47 33.67 L42.26 34.79 L41.86 35.98 L41.25 37.22 L40.42 38.49 L39.36 39.75 L38.09 40.99 L36.60 42.19 L34.90 43.30 L33.01 44.30 L30.95 45.18 L28.73 45.89 L26.39 46.43 L23.95 46.75 L21.45 46.85 L18.94 46.70 L16.44 46.28 L14.01 45.59 L11.69 44.62 L9.52 43.35 L7.56 41.79 L5.84 39.94 L4.42 37.81 L3.34 35.38 L3.02 35.52 L4.03 38.02 L5.41 40.27 L7.13 42.24 L9.12 43.92 L11.33 45.31 L13.72 46.40 L16.23 47.19 L18.81 47.69 L21.43 47.93 L24.03 47.90 L26.58 47.63 L29.05 47.15 L31.40 46.46 L33.61 45.61 L35.64 44.60 L37.50 43.48 L39.15 42.25 L40.59 40.94 L41.82 39.58 L42.82 38.18 L43.60 36.76 L44.16 35.35 L44.49 33.96 L44.61 32.60 L44.51 31.30 L44.22 30.08 L43.73 28.95 L43.08 27.94 L42.28 27.06 L41.37 26.32 L40.37 25.71 L39.31 25.24 L38.20 24.90 L37.07 24.69 L35.93 24.59 L34.80 24.61 L33.70 24.73 L32.64 24.94 L31.62 25.23 L30.66 25.61 L29.77 26.05 L28.95 26.55 L28.21 27.10 L27.56 27.70 L26.99 28.33 L26.51 29.00 L26.13 29.71 L25.85 30.43 L25.68 31.18 L25.62 31.93 L25.69 32.68 L25.88 33.39 L26.18 34.06 L26.58 34.65 L27.05 35.17 L27.58 35.60 L28.16 35.94 L28.75 36.20 L29.36 36.38 L29.97 36.50 L30.58 36.55 L31.17 36.54 L31.75 36.48 L32.31 36.38 L32.85 36.22 L33.37 36.02 L33.86 35.79 L34.32 35.51 L34.74 35.19 L35.14 34.84 L35.49 34.44 L35.80 34.00 L36.06 33.52 L36.25 32.99 L36.37 32.42 L36.40 31.82 L36.33 31.21 L36.16 30.62 L35.89 30.07 L35.69 29.74 Z" fill="url(#armg)"/>
    <path d="M32.68 30.84 L32.70 30.92 L32.82 31.20 L32.88 31.49 L32.90 31.76 L32.87 32.01 L32.81 32.20 L32.73 32.34 L32.66 32.43 L32.61 32.46 L32.57 32.46 L32.57 32.42 L32.59 32.36 L32.65 32.29 L32.74 32.20 L32.85 32.12 L32.99 32.04 L33.14 31.97 L33.31 31.92 L33.48 31.87 L33.65 31.85 L33.82 31.84 L33.97 31.85 L34.11 31.87 L34.22 31.89 L34.32 31.92 L34.39 31.96 L34.46 32.00 L34.52 32.05 L34.58 32.13 L34.62 32.24 L34.65 32.41 L34.64 32.64 L34.58 32.92 L34.45 33.25 L34.24 33.61 L33.96 34.00 L33.59 34.41 L33.14 34.81 L32.60 35.20 L31.99 35.56 L31.31 35.89 L30.56 36.16 L29.77 36.37 L28.94 36.52 L28.09 36.59 L27.23 36.57 L26.37 36.47 L25.54 36.27 L24.75 35.99 L24.01 35.60 L23.35 35.13 L22.77 34.56 L22.28 33.91 L21.89 33.16 L21.63 32.31 L21.50 31.36 L21.53 30.33 L21.74 29.21 L22.14 28.02 L22.75 26.78 L23.58 25.51 L24.64 24.25 L25.91 23.01 L27.40 21.81 L29.10 20.70 L30.99 19.70 L33.05 18.82 L35.27 18.11 L37.61 17.57 L40.05 17.25 L42.55 17.15 L45.06 17.30 L47.56 17.72 L49.99 18.41 L52.31 19.38 L54.48 20.65 L56.44 22.21 L58.16 24.06 L59.58 26.19 L60.66 28.62 L60.98 28.48 L59.97 25.98 L58.59 23.73 L56.87 21.76 L54.88 20.08 L52.67 18.69 L50.28 17.60 L47.77 16.81 L45.19 16.31 L42.57 16.07 L39.97 16.10 L37.42 16.37 L34.95 16.85 L32.60 17.54 L30.39 18.39 L28.36 19.40 L26.50 20.52 L24.85 21.75 L23.41 23.06 L22.18 24.42 L21.18 25.82 L20.40 27.24 L19.84 28.65 L19.51 30.04 L19.39 31.40 L19.49 32.70 L19.78 33.92 L20.27 35.05 L20.92 36.06 L21.72 36.94 L22.63 37.68 L23.63 38.29 L24.69 38.76 L25.80 39.10 L26.93 39.31 L28.07 39.41 L29.20 39.39 L30.30 39.27 L31.36 39.06 L32.38 38.77 L33.34 38.39 L34.23 37.95 L35.05 37.45 L35.79 36.90 L36.44 36.30 L37.01 35.67 L37.49 35.00 L37.87 34.29 L38.15 33.57 L38.32 32.82 L38.38 32.07 L38.31 31.32 L38.12 30.61 L37.82 29.94 L37.42 29.35 L36.95 28.83 L36.42 28.40 L35.84 28.06 L35.25 27.80 L34.64 27.62 L34.03 27.50 L33.42 27.45 L32.83 27.46 L32.25 27.52 L31.69 27.62 L31.15 27.78 L30.63 27.98 L30.14 28.21 L29.68 28.49 L29.26 28.81 L28.86 29.16 L28.51 29.56 L28.20 30.00 L27.94 30.48 L27.75 31.01 L27.63 31.58 L27.60 32.18 L27.67 32.79 L27.84 33.38 L28.11 33.93 L28.31 34.26 Z" fill="url(#armg)"/>
    <ellipse cx="32" cy="32" rx="10" ry="8" transform="rotate(-20 32 32)" fill="url(#core)"/>
    <circle cx="32" cy="32" r="2.6" fill="#fff"/>
    <circle cx="52" cy="13" r="0.9" fill="#cfe0ff"/>
    <circle cx="11" cy="49" r="0.8" fill="#cfe0ff"/>
    <circle cx="55" cy="46" r="0.6" fill="#cfe0ff" opacity="0.8"/>
</svg>
